<svg width="1440" height="100" viewBox="0 0 1440 100" fill="none" xmlns="http://www.w3.org/2000/svg">
<g clip-path="url(#clip0_37_4921)">
<rect width="1440" height="100" fill="#FF9211"/>
<g opacity="0.1">
<path d="M152.355 -16.0198L158.246 -39.7797L143.724 -43.3607L137.96 -20.2454C134.163 -21.1943 130.261 -22.0359 126.375 -22.9669L132.176 -46.2434L117.727 -49.8244L111.8 -26.1002C108.649 -26.8164 105.575 -27.5386 102.579 -28.2668L82.6506 -33.2444L78.8011 -17.8103C78.8011 -17.8103 89.2933 -15.411 89.2933 -15.1962C95.1483 -13.7279 96.2044 -9.82464 96.026 -6.79869L89.2758 20.2558C89.7884 20.3791 90.2911 20.5406 90.7795 20.7392L89.2574 20.3632L79.804 58.2503C79.5991 58.91 79.2658 59.5228 78.8231 60.0531C78.3805 60.5835 77.8372 61.021 77.2247 61.3405C76.6123 61.6601 75.9426 61.8553 75.2544 61.9149C74.5661 61.9746 73.8729 61.8974 73.2146 61.688H73.1788C73.3222 61.9029 62.6693 59.0739 62.6693 59.0739L55.5072 75.6182L74.3075 80.3093C77.8885 81.1866 81.2361 82.0998 84.6029 82.9592L78.622 106.97L93.0535 110.551L98.9803 86.7909C102.812 87.8293 106.662 88.8142 110.493 89.7811L104.584 113.434L119.033 117.015L125.014 93.0398C149.651 97.695 168.201 95.815 175.989 73.5412C182.274 55.6362 175.685 45.2512 162.704 38.501C172.14 36.3166 179.266 30.1215 181.164 17.2836L181.325 17.212C183.939 -0.317039 170.582 -9.73508 152.355 -16.0198ZM148.308 63.5144C143.85 81.4194 113.627 71.7507 103.832 69.3336L111.765 37.5163C121.522 39.9693 152.946 44.8036 148.272 63.5144H148.308ZM152.784 16.9614C148.703 33.2907 123.564 24.9828 115.399 22.9595L122.561 -5.88548C130.708 -3.86221 156.992 -0.0663376 152.677 16.9614H152.784Z" fill="black"/>
<path d="M121.5 168.778C95.0962 168.778 69.2854 160.948 47.3314 146.279C25.3775 131.61 8.26643 110.76 -1.83787 86.3663C-11.9422 61.9724 -14.5859 35.13 -9.43477 9.23355C-4.28365 -16.6629 8.43102 -40.4503 27.1013 -59.1206C45.7716 -77.7909 69.559 -90.5056 95.4555 -95.6567C121.352 -100.808 148.194 -98.1641 172.588 -88.0598C196.982 -77.9555 217.832 -60.8445 232.501 -38.8905C247.17 -16.9366 255 8.87431 255 35.2781C254.96 70.6722 240.882 104.605 215.855 129.633C190.827 154.66 156.894 168.738 121.5 168.778ZM121.5 -94.6409C95.8045 -94.6409 70.686 -87.0212 49.3209 -72.7456C27.9559 -58.4699 11.3038 -38.1793 1.47056 -14.4397C-8.3627 9.29987 -10.9355 35.4222 -5.92258 60.624C-0.909631 85.8259 11.464 108.975 29.6335 127.145C47.803 145.314 70.9523 157.688 96.1541 162.701C121.356 167.714 147.478 165.141 171.218 155.308C194.957 145.474 215.248 128.822 229.524 107.457C243.799 86.0922 251.419 60.9737 251.419 35.2781C251.38 0.833405 237.68 -32.1894 213.324 -56.5455C188.968 -80.9016 155.945 -94.6019 121.5 -94.6409ZM117.021 118.484L99.0952 114.041L105.005 90.385C102.326 89.71 99.632 89.0106 96.9589 88.2955L91.041 112.021L73.1346 107.577L79.119 83.5508C78.42 83.369 77.7192 83.1859 77.0165 83.0018C74.9152 82.4518 72.7845 81.8941 70.5639 81.3494L49.7078 76.1449L58.3212 56.2491L59.8113 56.6452C61.8733 57.1925 64.0507 57.7608 65.8661 58.2233L65.6142 57.8455L70.3764 59.2741C70.8136 59.4182 71.2751 59.4739 71.734 59.4381C72.193 59.4023 72.6402 59.2757 73.0498 59.0656C73.4594 58.8555 73.8232 58.5661 74.12 58.2142C74.4168 57.8623 74.6407 57.455 74.7788 57.0159L83.7973 20.8605L83.7885 20.8578L90.9296 -7.76224C91.0708 -11.1212 89.307 -13.2142 85.541 -14.1575L81.5216 -15.1656L81.6208 -15.2294C79.7206 -15.6901 77.3343 -16.2496 75.0857 -16.7628L73.3052 -17.1693L78.0297 -36.1139L99.6963 -30.7022C102.128 -30.1059 104.619 -29.517 107.171 -28.9353L113.106 -52.6909L131.03 -48.2488L125.234 -24.9906C126.253 -24.7528 127.272 -24.5176 128.291 -24.285C129.983 -23.896 131.668 -23.5096 133.337 -23.1074L139.103 -46.2248L157.098 -41.787L151.168 -17.8678C165.381 -12.7717 182.82 -3.61113 179.779 16.7777L179.634 17.7507L179.462 17.8268C177.686 28.1502 172.448 35.0228 163.859 38.3135C176.398 46.3288 179.83 57.8578 174.362 73.4355C165.726 98.1328 143.778 98.1284 123.027 94.4075L117.021 118.484ZM103.439 111.429L114.412 114.148L120.369 90.2687L122.029 90.5826C150.373 95.9375 164.557 90.6263 170.983 72.2518C176.329 57.0185 172.382 46.578 158.561 39.3906L154.255 37.1517L158.983 36.058C168.86 33.7718 174.451 27.317 176.076 16.3231L176.22 15.3492L176.366 15.2845C177.97 1.54097 169.312 -7.83382 148.455 -15.0255L146.906 -15.5588L152.76 -39.1693L141.713 -41.8926L135.946 -18.7717L134.208 -19.2062C131.997 -19.7596 129.749 -20.2754 127.489 -20.7939C125.876 -21.1646 124.257 -21.5361 122.641 -21.9234L120.884 -22.3448L126.688 -45.6346L115.714 -48.3544L109.795 -24.6635L108.086 -25.0525C104.924 -25.772 101.835 -26.4899 98.8355 -27.226L80.6376 -31.7722L77.6633 -19.8471C80.636 -19.2593 83.5757 -18.5149 86.4698 -17.6169C91.8754 -16.2399 94.7994 -12.5164 94.4961 -7.39139L94.4458 -7.06355L88.1008 18.3672L88.1218 18.3759L87.6956 19.9907L87.6121 19.9697L87.5789 20.0729L87.6782 20.0982L78.2242 57.9855C77.958 58.8822 77.5161 59.7169 76.9242 60.4411C76.3323 61.1653 75.6022 61.7645 74.7765 62.2038C73.9508 62.643 73.0459 62.9136 72.1145 62.9998C71.1832 63.086 70.244 62.986 69.3517 62.7057L69.3565 62.6891C67.9874 62.5046 65.4494 61.8454 60.3826 60.5017L54.6719 73.6935L71.4237 77.8734C73.6557 78.4207 75.8047 78.9828 77.9234 79.538C79.1981 79.8711 80.4619 80.2025 81.7283 80.5259L83.4532 80.9657L77.4753 104.965L88.4321 107.684L94.368 83.8866L96.1319 84.364C99.9332 85.3948 103.794 86.3976 107.607 87.3444L109.348 87.7772L103.439 111.429ZM127.174 75.2016C118.509 75.2016 109.009 72.7047 102.895 71.0986C101.836 70.8206 100.892 70.5724 100.086 70.373L98.3442 69.9428L107.144 34.6434L108.884 35.0814C109.867 35.3288 111.074 35.5998 112.442 35.9084C122.405 38.1527 139.08 41.9086 145.062 51.6173C146.811 54.4223 147.533 57.7474 147.105 61.0253H147.247L146.729 63.2486C146.306 65.1334 145.5 66.911 144.36 68.471C143.221 70.031 141.773 71.3399 140.106 72.3165C136.534 74.4323 131.982 75.2016 127.174 75.2016ZM102.683 67.3411C103.041 67.4346 103.415 67.5326 103.805 67.6349C112.164 69.8336 129.559 74.4008 138.28 69.2356C140.535 67.9345 142.213 65.8288 142.979 63.3413L143.219 62.3822C143.65 60.899 143.766 59.3417 143.558 57.8109C143.351 56.2801 142.824 54.8099 142.013 53.4953C136.822 45.0708 120.45 41.3832 111.654 39.4021C110.981 39.2499 110.346 39.1066 109.756 38.9711L102.683 67.3411ZM133.686 27.957C126.569 27.957 118.965 25.9331 114.047 24.6243C113.143 24.3839 112.336 24.1688 111.651 23.9992L109.913 23.5682L117.938 -8.75264L119.675 -8.32162C120.481 -8.12141 121.467 -7.90373 122.585 -7.65718C130.759 -5.8527 144.439 -2.83121 149.624 5.57488C151.267 8.23135 151.936 11.3768 151.515 14.4723H151.654L151.205 16.6973C150.808 18.5061 150.042 20.2136 148.957 21.7137C147.871 23.2137 146.488 24.4741 144.893 25.4164C141.447 27.2384 137.58 28.1151 133.686 27.957ZM114.247 20.9725C114.48 21.0336 114.72 21.0975 114.968 21.1639C122.213 23.0908 135.698 26.6805 143.074 22.3319C144.971 21.2331 146.43 19.5147 147.208 17.4657L147.625 15.823C148.047 14.4327 148.172 12.9692 147.991 11.5275C147.81 10.0859 147.328 8.69843 146.576 7.45537C142.186 0.337944 128.933 -2.58821 121.813 -4.16016C121.373 -4.25722 120.954 -4.34991 120.556 -4.43908L114.247 20.9725Z" fill="black"/>
</g>
<g opacity="0.2">
<path d="M247.265 -18.4196L371.364 -57.2729L478.082 17.0346L459.12 140.483L333.409 189.829L228.303 105.028L247.265 -18.4196Z" fill="#FF9211"/>
<path d="M267.17 -2.43402L367.552 -33.8299L453.885 26.2459L438.557 126.033L336.872 165.911L251.842 97.3532L267.17 -2.43402Z" fill="black"/>
<path d="M288.572 14.7921L363.694 -8.70783L428.299 36.2545L416.827 110.941L340.73 140.789L277.1 89.4782L288.572 14.7921Z" fill="#FF9211"/>
<path d="M299.791 24.1525L361.606 4.88278L414.788 41.8163L405.37 103.129L342.755 127.61L290.373 85.465L299.791 24.1525Z" fill="black"/>
<path d="M352.813 62.1281L414.788 41.8163L405.37 103.129L342.755 127.61L352.813 62.1281Z" fill="#FF9211"/>
</g>
<path d="M122.4 43.8C122.8 44.28 123.08 44.6667 123.24 44.96C123.4 45.2533 123.48 45.5333 123.48 45.8C123.48 46.12 123.267 46.4933 122.84 46.92C122.44 47.3467 122.04 47.56 121.64 47.56C121.107 47.56 120.68 47.48 120.36 47.32C120.04 47.16 119.773 46.9067 119.56 46.56C119.133 45.92 118.613 45.3733 118 44.92C117.387 44.44 116.427 44.2 115.12 44.2C114 44.2 112.72 44.4533 111.28 44.96C109.867 45.4667 108.853 46.0933 108.24 46.84C107.707 47.5067 107.24 48.52 106.84 49.88C106.467 51.24 106.28 52.56 106.28 53.84C106.28 55.3867 106.613 56.8133 107.28 58.12C107.973 59.4 108.96 60.4267 110.24 61.2C111.547 61.9733 113.107 62.36 114.92 62.36C115.907 62.36 116.92 62.1733 117.96 61.8C119.027 61.4 119.947 60.76 120.72 59.88H120.68C121.16 59.3733 121.76 59.12 122.48 59.12C122.907 59.12 123.307 59.3067 123.68 59.68C124.08 60.0533 124.28 60.4267 124.28 60.8C124.28 61.2 124.213 61.56 124.08 61.88C123.973 62.1733 123.76 62.5067 123.44 62.88C122.347 64.1067 121.053 64.9467 119.56 65.4C118.067 65.8533 116.28 66.08 114.2 66.08C112.36 66.08 110.493 65.64 108.6 64.76C106.733 63.88 105.293 62.8133 104.28 61.56C103.747 60.7867 103.227 59.68 102.72 58.24C102.24 56.7733 102 55.5867 102 54.68C102 52.36 102.347 50.16 103.04 48.08C103.76 45.9733 104.827 44.2933 106.24 43.04C107.173 42.1867 108.52 41.5467 110.28 41.12C112.04 40.6933 113.653 40.48 115.12 40.48C116.907 40.48 118.307 40.7333 119.32 41.24C120.36 41.72 121.387 42.5733 122.4 43.8ZM133.392 64.4C133.392 64.8533 133.218 65.2533 132.872 65.6C132.525 65.9467 132.098 66.12 131.592 66.12C130.792 66.12 130.205 65.9733 129.832 65.68C129.458 65.36 129.272 64.7867 129.272 63.96C129.272 62.9733 129.245 61.68 129.192 60.08C129.138 58.7467 129.112 57.6267 129.112 56.72C129.112 56.2933 129.138 55.7333 129.192 55.04C129.245 54.4 129.272 53.92 129.272 53.6C129.192 53.0933 128.992 52.68 128.672 52.36C128.352 52.0133 127.938 51.84 127.432 51.84C127.192 51.84 126.992 51.7333 126.832 51.52C126.672 51.28 126.592 51.04 126.592 50.8C126.592 50.1867 126.832 49.72 127.312 49.4C127.818 49.08 128.418 48.92 129.112 48.92C130.552 48.92 131.552 49.7733 132.112 51.48C132.805 50.68 133.592 50.04 134.472 49.56C135.378 49.0533 136.245 48.8 137.072 48.8C138.058 48.8 138.952 49.0667 139.752 49.6C140.578 50.1333 140.992 50.8533 140.992 51.76C140.992 52.2667 140.765 52.7867 140.312 53.32C139.885 53.8533 139.445 54.12 138.992 54.12C138.752 54.12 138.538 54.0667 138.352 53.96C138.192 53.8267 137.992 53.64 137.752 53.4C137.485 53.1333 137.258 52.9467 137.072 52.84C136.885 52.7067 136.672 52.64 136.432 52.64C136.005 52.64 135.605 52.7067 135.232 52.84C134.858 52.9733 134.605 53.1333 134.472 53.32C134.045 53.9867 133.725 54.5867 133.512 55.12C133.325 55.6533 133.232 56.2267 133.232 56.84C133.232 57.2933 133.218 57.6533 133.192 57.92L133.152 60.2C133.152 60.5467 133.165 60.9333 133.192 61.36C133.218 61.7867 133.245 62.1067 133.272 62.32C133.352 63.04 133.392 63.7333 133.392 64.4ZM147.73 74.16C146.263 74.16 145.197 73.8933 144.53 73.36C143.89 72.8533 143.57 72.2933 143.57 71.68C143.57 70.7467 144.01 70.28 144.89 70.28C145.157 70.28 145.503 70.36 145.93 70.52C146.357 70.7067 146.757 70.8 147.13 70.8C147.717 70.8 148.197 70.4133 148.57 69.64C148.943 68.8667 149.317 67.6133 149.69 65.88C148.863 64.92 147.85 63.4 146.65 61.32C145.477 59.24 144.463 57.2 143.61 55.2C142.757 53.1733 142.33 51.7333 142.33 50.88C142.33 50.2133 142.557 49.72 143.01 49.4C143.49 49.08 144.037 48.92 144.65 48.92C145.13 48.92 145.503 49.0133 145.77 49.2C146.037 49.36 146.223 49.6667 146.33 50.12C146.97 52.3867 147.65 54.3733 148.37 56.08C149.117 57.7867 150.063 59.64 151.21 61.64C151.663 60.6 152.263 58.8267 153.01 56.32C153.837 53.52 154.53 51.5333 155.09 50.36C155.33 49.88 155.623 49.4933 155.97 49.2C156.343 48.9067 156.757 48.76 157.21 48.76C157.663 48.76 158.143 48.9333 158.65 49.28C159.183 49.6 159.45 49.9867 159.45 50.44C159.45 50.7067 159.357 51.0267 159.17 51.4C158.13 53.8 157.21 56.0667 156.41 58.2C155.637 60.3067 154.89 62.6267 154.17 65.16C153.743 66.5733 153.29 67.92 152.81 69.2C152.357 70.48 152.037 71.2667 151.85 71.56C151.317 72.3067 150.717 72.92 150.05 73.4C149.383 73.9067 148.61 74.16 147.73 74.16ZM163.04 52.08C162.8 52.08 162.573 52.1067 162.36 52.16C162.147 52.1867 161.933 52.2 161.72 52.2C161.427 52.2 161.147 52.0667 160.88 51.8C160.64 51.5333 160.52 51.2933 160.52 51.08C160.52 50.3867 160.867 49.8533 161.56 49.48C162.253 49.08 162.96 48.88 163.68 48.88C164.293 48.88 164.92 49.0933 165.56 49.52C166.227 49.92 166.72 50.44 167.04 51.08C167.733 50.2533 168.587 49.6533 169.6 49.28C170.613 48.9067 171.667 48.72 172.76 48.72C173.987 48.72 175.12 49.1067 176.16 49.88C177.227 50.6533 178.067 51.64 178.68 52.84C179.293 54.0133 179.6 55.1867 179.6 56.36C179.6 57.5067 179.48 58.5333 179.24 59.44C179 60.32 178.573 61.2133 177.96 62.12C177.267 63.08 176.333 63.8667 175.16 64.48C174.013 65.0933 172.64 65.4 171.04 65.4C170.613 65.4 170.093 65.2933 169.48 65.08C168.867 64.84 168.36 64.5867 167.96 64.32C167.773 66.1333 167.68 67.7067 167.68 69.04C167.68 69.84 167.72 70.6 167.8 71.32C167.853 72.1733 167.88 72.7867 167.88 73.16C167.88 73.7467 167.68 74.1733 167.28 74.44C166.88 74.7333 166.44 74.88 165.96 74.88C165 74.88 164.36 74.6133 164.04 74.08C163.747 73.5733 163.6 72.84 163.6 71.88C163.707 69.5867 163.84 67.4667 164 65.52C164.16 63.12 164.24 59.4133 164.24 54.4C164.24 53.92 164.147 53.4133 163.96 52.88C163.773 52.3467 163.467 52.08 163.04 52.08ZM168.12 60.36C168.253 60.8667 168.627 61.2933 169.24 61.64C169.88 61.96 170.453 62.12 170.96 62.12C172.48 62.12 173.613 61.7067 174.36 60.88C174.92 60.2933 175.28 59.72 175.44 59.16C175.627 58.6 175.72 57.7067 175.72 56.48C175.72 55.52 175.533 54.72 175.16 54.08C174.787 53.4133 174.333 52.9333 173.8 52.64C173.267 52.32 172.76 52.16 172.28 52.16C171.187 52.16 170.293 52.4933 169.6 53.16C168.933 53.8 168.507 54.68 168.32 55.8C168.187 56.68 168.12 58.2 168.12 60.36ZM183.292 52.16C182.919 52.1067 182.612 51.9467 182.372 51.68C182.159 51.4133 182.052 51.0933 182.052 50.72C182.052 50.5333 182.092 50.3333 182.172 50.12C182.279 49.9067 182.425 49.72 182.612 49.56C182.959 49.2133 183.892 49.04 185.412 49.04C185.625 48 185.732 46.9467 185.732 45.88C185.732 45.48 185.719 45.1333 185.692 44.84C185.665 44.5467 185.652 44.32 185.652 44.16C185.652 43.5733 185.865 43.1333 186.292 42.84C186.745 42.5467 187.252 42.4 187.812 42.4C188.505 42.4 188.972 42.5733 189.212 42.92C189.479 43.2667 189.612 43.9067 189.612 44.84C189.612 46.2267 189.492 47.5867 189.252 48.92C189.679 48.92 190.265 48.8933 191.012 48.84C192.025 48.7867 192.759 48.76 193.212 48.76C193.665 48.76 194.052 48.88 194.372 49.12C194.719 49.3333 194.892 49.64 194.892 50.04C194.892 51.08 194.425 51.6933 193.492 51.88C192.505 52.12 190.972 52.2667 188.892 52.32C188.812 53.36 188.772 54.4933 188.772 55.72C188.772 57.64 188.892 59.2133 189.132 60.44C189.292 61.2933 189.559 61.92 189.932 62.32C190.332 62.6933 190.919 62.88 191.692 62.88C192.145 62.88 192.612 62.76 193.092 62.52C193.412 62.3333 193.705 62.24 193.972 62.24C194.345 62.24 194.612 62.36 194.772 62.6C194.959 62.84 195.052 63.16 195.052 63.56C195.052 64.3067 194.652 64.9333 193.852 65.44C193.052 65.92 192.025 66.16 190.772 66.16C189.999 66.16 189.212 65.9733 188.412 65.6C187.639 65.2267 186.985 64.76 186.452 64.2C186.372 64.12 186.225 63.8133 186.012 63.28C185.799 62.7467 185.612 62.1733 185.452 61.56C185.185 60.3067 185.052 58.5467 185.052 56.28C185.052 55.2933 185.105 53.9733 185.212 52.32L183.292 52.16ZM214.171 53.16C214.384 53.5333 214.558 54.08 214.691 54.8C214.824 55.4933 214.891 56.12 214.891 56.68C214.891 57.72 214.664 59.2 214.211 61.12C212.371 64.48 209.651 66.16 206.051 66.16C204.718 66.16 203.358 65.72 201.971 64.84C200.584 63.96 199.624 62.9467 199.091 61.8C198.371 59.5067 198.011 58.0533 198.011 57.44C198.011 56.3733 198.238 55.24 198.691 54.04C199.171 52.84 199.771 51.8 200.491 50.92C200.944 50.3067 201.758 49.7867 202.931 49.36C204.104 48.9067 205.171 48.68 206.131 48.68C207.998 48.68 209.584 49.04 210.891 49.76C212.198 50.4533 213.291 51.5867 214.171 53.16ZM210.691 59.6C210.824 59.2533 210.891 58.36 210.891 56.92C210.891 56.1467 210.744 55.3867 210.451 54.64C210.184 53.8933 209.784 53.2533 209.251 52.72C209.198 52.6667 209.051 52.5867 208.811 52.48C208.571 52.3467 208.238 52.2267 207.811 52.12C207.411 51.9867 206.944 51.92 206.411 51.92C204.918 51.92 203.824 52.52 203.131 53.72C202.438 54.92 202.091 56.28 202.091 57.8C202.091 58.0667 202.158 58.5733 202.291 59.32C202.451 60.0667 202.584 60.5333 202.691 60.72C202.771 60.9067 202.971 61.1733 203.291 61.52C203.638 61.84 204.051 62.1333 204.531 62.4C205.038 62.64 205.558 62.76 206.091 62.76C207.291 62.76 208.251 62.48 208.971 61.92C209.691 61.3333 210.264 60.56 210.691 59.6ZM235.96 60.56C236.466 60.56 236.84 60.76 237.08 61.16C237.346 61.5333 237.48 61.9467 237.48 62.4C237.48 62.96 237.386 63.36 237.2 63.6C237.04 63.8133 236.72 64.04 236.24 64.28C235.12 64.8133 233.733 65.24 232.08 65.56C230.426 65.88 228.653 66.04 226.76 66.04C224.386 66.04 222.64 65.64 221.52 64.84C220.426 64.04 219.746 63.08 219.48 61.96C219.24 60.8133 219.12 59.32 219.12 57.48C219.12 55.5067 219.2 53.5733 219.36 51.68C219.52 49.76 219.8 47.32 220.2 44.36C220.386 43.08 220.893 42.16 221.72 41.6C222.546 41.0133 223.453 40.72 224.44 40.72C225.266 40.72 226.613 40.6933 228.48 40.64L231.96 40.6C233.4 40.6 234.44 40.64 235.08 40.72C235.88 40.88 236.466 41.0667 236.84 41.28C237.24 41.4667 237.44 41.8 237.44 42.28C237.44 42.8133 237.253 43.3333 236.88 43.84C236.533 44.3467 236 44.6 235.28 44.6C234.453 44.6 233.266 44.5467 231.72 44.44C230.173 44.3333 229.013 44.28 228.24 44.28C227.573 44.28 226.92 44.32 226.28 44.4C225.533 44.4533 225 44.5467 224.68 44.68C224.36 44.8133 224.173 45.04 224.12 45.36C223.746 48.1067 223.56 50.1333 223.56 51.44C224.173 51.52 224.773 51.56 225.36 51.56C226.106 51.56 226.906 51.52 227.76 51.44C228.613 51.36 229.16 51.3067 229.4 51.28C230.813 51.1467 232.026 51.08 233.04 51.08C233.626 51.08 234.066 51.1867 234.36 51.4C234.68 51.6133 234.84 51.9067 234.84 52.28C234.84 52.8667 234.68 53.32 234.36 53.64C234.066 53.96 233.533 54.2 232.76 54.36C231.826 54.5467 230.666 54.6933 229.28 54.8C227.92 54.9067 226.586 54.96 225.28 54.96C224.826 54.96 224.2 54.9333 223.4 54.88C223.32 56.5067 223.28 58.0133 223.28 59.4C223.28 61.2933 224.533 62.24 227.04 62.24C228.373 62.24 229.48 62.1467 230.36 61.96C231.24 61.7733 232.253 61.5067 233.4 61.16C234.466 60.76 235.32 60.56 235.96 60.56ZM257.43 65.8C256.87 65.8 256.337 65.64 255.83 65.32C255.35 64.9733 254.923 64.6133 254.55 64.24C254.177 63.84 253.923 63.5733 253.79 63.44C253.23 64.24 252.417 64.8933 251.35 65.4C250.283 65.9067 249.257 66.16 248.27 66.16C246.75 66.16 245.403 65.84 244.23 65.2C243.057 64.56 242.15 63.6933 241.51 62.6C240.87 61.48 240.55 60.24 240.55 58.88C240.55 57.6 240.697 56.3733 240.99 55.2C241.31 54 241.737 53 242.27 52.2C242.99 51.1867 243.95 50.3867 245.15 49.8C246.377 49.2133 247.59 48.92 248.79 48.92C249.51 48.92 250.19 49.0533 250.83 49.32C251.47 49.5867 252.03 49.92 252.51 50.32C252.51 48.56 252.497 47.4533 252.47 47V46.12C252.47 43.6133 252.63 41.7867 252.95 40.64C253.243 39.52 253.963 38.96 255.11 38.96C255.723 38.96 256.177 39.0933 256.47 39.36C256.763 39.6267 256.91 40.1333 256.91 40.88C256.91 41.1467 256.843 41.88 256.71 43.08C256.417 46.0667 256.27 49.0533 256.27 52.04C256.27 54.5467 256.31 56.4133 256.39 57.64C256.497 58.84 256.697 59.8 256.99 60.52C257.31 61.24 257.803 61.88 258.47 62.44C258.87 62.76 259.15 63.0267 259.31 63.24C259.497 63.4533 259.59 63.7333 259.59 64.08C259.59 64.5067 259.377 64.9067 258.95 65.28C258.523 65.6267 258.017 65.8 257.43 65.8ZM248.15 62.92C249.563 62.92 250.603 62.48 251.27 61.6C251.963 60.6933 252.31 59.5467 252.31 58.16L252.27 55.92C252.243 55.4933 252.23 54.92 252.23 54.2C251.243 53.0267 250.177 52.44 249.03 52.44C248.257 52.44 247.523 52.64 246.83 53.04C246.163 53.44 245.617 54.0267 245.19 54.8C244.737 55.68 244.51 57.0133 244.51 58.8C244.51 60.0267 244.87 61.0267 245.59 61.8C246.31 62.5467 247.163 62.92 248.15 62.92Z" fill="white"/>
<path d="M204.556 54.6412C202.729 56.0855 200.628 57.1412 198.389 57.7401C198.256 57.7763 198.116 57.7737 197.987 57.7325C197.858 57.6914 197.745 57.6134 197.661 57.5081L194.135 53.1049C194.019 52.9605 193.967 52.7749 193.991 52.5888C194.014 52.4027 194.11 52.2314 194.259 52.1123L204.337 44.04C204.486 43.9213 204.674 43.8647 204.861 43.8826C205.047 43.9005 205.217 43.9916 205.333 44.1357L208.86 48.539C208.944 48.6435 208.995 48.771 209.007 48.9061C209.019 49.0411 208.991 49.1778 208.927 49.2995C207.854 51.3539 206.365 53.1737 204.556 54.6412Z" fill="black"/>
<path d="M201.698 51.0751C201.623 51.135 201.537 51.1798 201.446 51.2068L190.83 54.3314C190.693 54.3717 190.548 54.3707 190.414 54.3284C190.28 54.2861 190.163 54.2046 190.078 54.0942C189.993 53.9839 189.944 53.8499 189.937 53.7094C189.93 53.569 189.966 53.4285 190.04 53.3062L195.672 43.9586C195.763 43.8079 195.905 43.6942 196.072 43.6394L206.317 40.2702C206.452 40.2258 206.596 40.2221 206.731 40.2595C206.866 40.297 206.986 40.374 207.075 40.4806C207.163 40.5872 207.217 40.7186 207.23 40.858C207.242 40.9973 207.212 41.1384 207.144 41.263L201.883 50.8551C201.836 50.9397 201.773 51.0145 201.698 51.0751Z" fill="black"/>
<path d="M199.232 57.5565C199.644 57.2263 199.718 56.6338 199.397 56.2331C199.076 55.8324 198.482 55.7754 198.07 56.1056C197.657 56.4358 197.583 57.0283 197.904 57.429C198.225 57.8297 198.82 57.8867 199.232 57.5565Z" fill="white"/>
<path d="M206.798 40.7761L201.538 50.3683C201.497 50.443 201.441 50.5093 201.374 50.563C201.308 50.6167 201.231 50.6568 201.149 50.6808L190.533 53.8055C190.4 53.8458 190.259 53.8413 190.132 53.7929C190.144 53.8805 190.175 53.964 190.223 54.0378C190.271 54.1116 190.334 54.174 190.408 54.221C190.483 54.2679 190.567 54.2983 190.655 54.31C190.744 54.3218 190.834 54.3147 190.92 54.2892L201.537 51.1645C201.618 51.1404 201.695 51.1003 201.762 51.0466C201.828 50.9929 201.884 50.9267 201.925 50.8519L207.186 41.2597C207.229 41.1811 207.255 41.0947 207.263 41.0063C207.27 40.9179 207.259 40.8294 207.229 40.7467C207.199 40.6641 207.152 40.5891 207.091 40.5267C207.029 40.4644 206.955 40.4161 206.872 40.385C206.891 40.5187 206.866 40.6562 206.798 40.7761Z" fill="white"/>
<path d="M198.711 56.778C198.744 56.7515 198.766 56.7135 198.771 56.6721C198.776 56.6307 198.765 56.5895 198.739 56.5574L195.498 52.5116L198.439 47.772C198.472 47.7461 198.494 47.7083 198.5 47.667C198.506 47.6257 198.495 47.5842 198.469 47.5518C198.444 47.5193 198.407 47.4985 198.365 47.4939C198.324 47.4893 198.282 47.5013 198.249 47.5272L195.308 52.2668C195.275 52.2925 195.247 52.3246 195.226 52.3611C195.204 52.3976 195.191 52.4378 195.186 52.4792C195.18 52.5205 195.183 52.5623 195.194 52.6021C195.205 52.6419 195.224 52.6789 195.25 52.7109L198.49 56.7567C198.516 56.7888 198.553 56.809 198.595 56.813C198.636 56.817 198.678 56.8044 198.711 56.778Z" fill="white"/>
<rect x="398" y="33" width="544" height="38" rx="19" fill="white"/>
<path d="M444.773 54.647C444.773 55.0543 444.678 55.4053 444.487 55.7C444.305 55.986 444.002 56.2503 443.577 56.493C443.291 56.6663 442.957 56.7963 442.576 56.883C442.195 56.9697 441.809 57.013 441.419 57.013C441.02 57.013 440.526 56.883 439.937 56.623C439.512 56.415 439.174 56.168 438.923 55.882C438.68 55.596 438.559 55.284 438.559 54.946C438.559 54.712 438.611 54.543 438.715 54.439C438.819 54.3263 438.988 54.27 439.222 54.27C439.343 54.27 439.469 54.322 439.599 54.426C439.729 54.5213 439.807 54.6167 439.833 54.712C439.954 55.0673 440.167 55.3403 440.47 55.531C440.773 55.713 441.15 55.804 441.601 55.804C442.121 55.804 442.554 55.7087 442.901 55.518C443.256 55.3273 443.434 55.0717 443.434 54.751C443.434 54.439 443.243 54.1617 442.862 53.919C442.481 53.6763 442.091 53.5073 441.692 53.412C441.12 53.256 440.613 53.0697 440.171 52.853C439.712 52.6277 439.369 52.3503 439.144 52.021C438.919 51.6917 438.806 51.345 438.806 50.981C438.806 50.643 438.923 50.3007 439.157 49.954C439.391 49.5987 439.668 49.343 439.989 49.187C440.162 49.1003 440.457 49.0093 440.873 48.914C441.298 48.81 441.605 48.758 441.796 48.758C442.047 48.758 442.325 48.7883 442.628 48.849C442.931 48.9097 443.178 48.9963 443.369 49.109C443.75 49.3257 444.032 49.5207 444.214 49.694C444.396 49.8673 444.487 50.084 444.487 50.344C444.487 50.5 444.426 50.6387 444.305 50.76C444.192 50.8813 443.993 50.942 443.707 50.942C443.638 50.942 443.568 50.9117 443.499 50.851C443.43 50.7903 443.343 50.6993 443.239 50.578C443.1 50.396 442.966 50.2747 442.836 50.214C442.706 50.1707 442.515 50.123 442.264 50.071C442.021 50.019 441.805 49.993 441.614 49.993C441.406 49.993 441.189 50.0363 440.964 50.123C440.739 50.2097 440.548 50.3353 440.392 50.5C440.245 50.656 440.171 50.838 440.171 51.046C440.171 51.2193 440.249 51.371 440.405 51.501C440.57 51.6223 440.765 51.722 440.99 51.8C441.25 51.904 441.532 51.995 441.835 52.073C442.234 52.1943 442.559 52.307 442.81 52.411C443.07 52.5063 443.321 52.6277 443.564 52.775C443.989 53.0263 444.296 53.2863 444.487 53.555C444.678 53.815 444.773 54.179 444.773 54.647ZM445.885 54.244C445.885 53.9147 445.945 53.5853 446.067 53.256C446.188 52.918 446.348 52.6103 446.548 52.333C446.747 52.0557 447.063 51.8303 447.497 51.657C447.93 51.475 448.316 51.384 448.654 51.384C449 51.384 449.351 51.4317 449.707 51.527C450.071 51.6223 450.322 51.7697 450.461 51.969C450.781 52.4197 450.942 52.8617 450.942 53.295C450.942 53.529 450.89 53.7283 450.786 53.893C450.69 54.0577 450.552 54.2353 450.37 54.426C450.222 54.582 449.988 54.686 449.668 54.738C449.356 54.79 449.044 54.816 448.732 54.816C448.532 54.816 448.29 54.7987 448.004 54.764C447.718 54.7207 447.44 54.6687 447.172 54.608C447.189 54.7813 447.232 54.9503 447.302 55.115C447.371 55.2797 447.453 55.4053 447.549 55.492C447.722 55.6567 447.9 55.7607 448.082 55.804C448.272 55.8473 448.515 55.869 448.81 55.869C449.122 55.869 449.412 55.817 449.681 55.713C449.897 55.635 450.075 55.596 450.214 55.596C450.378 55.596 450.504 55.648 450.591 55.752C450.677 55.8473 450.721 55.973 450.721 56.129C450.721 56.3457 450.595 56.5233 450.344 56.662C450.092 56.8007 449.802 56.9047 449.473 56.974C449.152 57.0347 448.892 57.065 448.693 57.065C448.285 57.065 447.891 56.9913 447.51 56.844C447.128 56.6967 446.812 56.4887 446.561 56.22C446.353 55.9773 446.188 55.687 446.067 55.349C445.945 55.0023 445.885 54.634 445.885 54.244ZM448.719 52.489C448.528 52.489 448.337 52.528 448.147 52.606C447.956 52.6753 447.8 52.775 447.679 52.905C447.523 53.0697 447.414 53.204 447.354 53.308C447.302 53.4033 447.267 53.5377 447.25 53.711C447.466 53.7803 447.917 53.815 448.602 53.815C448.974 53.815 449.26 53.7587 449.46 53.646C449.668 53.5333 449.772 53.386 449.772 53.204C449.772 53.022 449.659 52.8573 449.434 52.71C449.208 52.5627 448.97 52.489 448.719 52.489ZM457.124 57.052C456.829 57.052 456.604 57.0087 456.448 56.922C456.292 56.8267 456.123 56.6533 455.941 56.402C455.716 56.6013 455.378 56.7617 454.927 56.883C454.485 57.0043 454.104 57.065 453.783 57.065C453.254 57.065 452.825 56.922 452.496 56.636C452.175 56.3413 452.015 55.9123 452.015 55.349C452.015 55.1063 452.08 54.8853 452.21 54.686C452.349 54.478 452.526 54.296 452.743 54.14C452.986 53.9753 453.272 53.8453 453.601 53.75C453.939 53.6547 454.247 53.607 454.524 53.607C454.992 53.607 455.408 53.6503 455.772 53.737V53.724C455.772 53.256 455.655 52.9353 455.421 52.762C455.196 52.58 454.832 52.489 454.329 52.489C454.008 52.489 453.731 52.632 453.497 52.918C453.41 53.0307 453.228 53.087 452.951 53.087C452.812 53.087 452.708 53.0307 452.639 52.918C452.578 52.7967 452.548 52.6753 452.548 52.554C452.548 52.3027 452.652 52.086 452.86 51.904C453.077 51.722 453.337 51.5877 453.64 51.501C453.943 51.4057 454.225 51.358 454.485 51.358C454.736 51.358 455.035 51.41 455.382 51.514C455.729 51.618 456.01 51.7567 456.227 51.93C456.487 52.1553 456.686 52.4197 456.825 52.723C456.972 53.0177 457.046 53.3427 457.046 53.698C457.046 53.8107 457.037 53.9797 457.02 54.205C457.003 54.465 456.994 54.6773 456.994 54.842C456.994 54.92 456.985 55.0197 456.968 55.141C456.951 55.297 456.942 55.427 456.942 55.531C456.942 55.6437 456.977 55.752 457.046 55.856C457.115 55.96 457.211 56.0467 457.332 56.116C457.445 56.1767 457.518 56.2417 457.553 56.311C457.588 56.3803 457.605 56.4583 457.605 56.545C457.605 56.6317 457.549 56.74 457.436 56.87C457.332 56.9913 457.228 57.052 457.124 57.052ZM454.524 54.569C454.186 54.569 453.887 54.634 453.627 54.764C453.367 54.894 453.237 55.1237 453.237 55.453C453.237 55.6177 453.293 55.7563 453.406 55.869C453.527 55.9817 453.657 56.038 453.796 56.038C454.169 56.038 454.481 55.999 454.732 55.921C454.983 55.843 455.287 55.7 455.642 55.492C455.685 55.3533 455.711 55.1583 455.72 54.907C455.72 54.8117 455.724 54.738 455.733 54.686C455.265 54.608 454.862 54.569 454.524 54.569ZM460.507 56.48C460.507 56.6273 460.45 56.7573 460.338 56.87C460.225 56.9827 460.086 57.039 459.922 57.039C459.662 57.039 459.471 56.9913 459.35 56.896C459.228 56.792 459.168 56.6057 459.168 56.337C459.168 56.0163 459.159 55.596 459.142 55.076C459.124 54.6427 459.116 54.2787 459.116 53.984C459.116 53.8453 459.124 53.6633 459.142 53.438C459.159 53.23 459.168 53.074 459.168 52.97C459.142 52.8053 459.077 52.671 458.973 52.567C458.869 52.4543 458.734 52.398 458.57 52.398C458.492 52.398 458.427 52.3633 458.375 52.294C458.323 52.216 458.297 52.138 458.297 52.06C458.297 51.8607 458.375 51.709 458.531 51.605C458.695 51.501 458.89 51.449 459.116 51.449C459.584 51.449 459.909 51.7263 460.091 52.281C460.316 52.021 460.572 51.813 460.858 51.657C461.152 51.4923 461.434 51.41 461.703 51.41C462.023 51.41 462.314 51.4967 462.574 51.67C462.842 51.8433 462.977 52.0773 462.977 52.372C462.977 52.5367 462.903 52.7057 462.756 52.879C462.617 53.0523 462.474 53.139 462.327 53.139C462.249 53.139 462.179 53.1217 462.119 53.087C462.067 53.0437 462.002 52.983 461.924 52.905C461.837 52.8183 461.763 52.7577 461.703 52.723C461.642 52.6797 461.573 52.658 461.495 52.658C461.356 52.658 461.226 52.6797 461.105 52.723C460.983 52.7663 460.901 52.8183 460.858 52.879C460.719 53.0957 460.615 53.2907 460.546 53.464C460.485 53.6373 460.455 53.8237 460.455 54.023C460.455 54.1703 460.45 54.2873 460.442 54.374L460.429 55.115C460.429 55.2277 460.433 55.3533 460.442 55.492C460.45 55.6307 460.459 55.7347 460.468 55.804C460.494 56.038 460.507 56.2633 460.507 56.48ZM467.793 53.061C467.663 53.061 467.55 53.0307 467.455 52.97C467.368 52.9007 467.277 52.8097 467.182 52.697C467.086 52.5843 466.982 52.5107 466.87 52.476C466.766 52.4413 466.644 52.424 466.506 52.424C466.254 52.424 466.007 52.502 465.765 52.658C465.531 52.8053 465.336 53.0133 465.18 53.282C465.032 53.5507 464.959 53.8497 464.959 54.179C464.959 54.543 465.028 54.8463 465.167 55.089C465.314 55.3317 465.544 55.544 465.856 55.726C465.968 55.7867 466.098 55.8343 466.246 55.869C466.402 55.9037 466.536 55.921 466.649 55.921C466.917 55.921 467.264 55.804 467.689 55.57C467.723 55.5527 467.788 55.5223 467.884 55.479C467.988 55.427 468.066 55.401 468.118 55.401C468.213 55.401 468.321 55.4487 468.443 55.544C468.564 55.6307 468.625 55.739 468.625 55.869C468.625 56.129 468.512 56.35 468.287 56.532C468.07 56.714 467.797 56.8483 467.468 56.935C467.138 57.0217 466.813 57.065 466.493 57.065C465.981 57.065 465.505 56.948 465.063 56.714C464.621 56.48 464.27 56.155 464.01 55.739C463.75 55.323 463.62 54.855 463.62 54.335C463.62 53.7717 463.745 53.2647 463.997 52.814C464.248 52.3547 464.586 51.995 465.011 51.735C465.444 51.4663 465.912 51.332 466.415 51.332C466.9 51.332 467.346 51.4273 467.754 51.618C468.17 51.8087 468.378 52.099 468.378 52.489C468.378 52.8703 468.183 53.061 467.793 53.061ZM471.239 48.758C471.239 48.9833 471.234 49.2477 471.226 49.551C471.217 49.8457 471.208 50.071 471.2 50.227C471.174 50.669 471.161 51.111 471.161 51.553C471.161 52.1337 471.174 52.6017 471.2 52.957C471.399 52.463 471.681 52.0903 472.045 51.839C472.409 51.579 472.825 51.449 473.293 51.449C473.613 51.449 473.912 51.592 474.19 51.878C474.467 52.164 474.645 52.4977 474.723 52.879C474.731 52.9223 474.736 52.9873 474.736 53.074C474.736 53.178 474.727 53.3427 474.71 53.568C474.684 53.75 474.671 53.932 474.671 54.114C474.671 54.582 474.688 54.946 474.723 55.206C474.757 55.4573 474.831 55.6653 474.944 55.83C475.056 55.986 475.234 56.1117 475.477 56.207C475.572 56.2417 475.637 56.2893 475.672 56.35C475.715 56.402 475.737 56.4843 475.737 56.597C475.737 56.753 475.654 56.87 475.49 56.948C475.334 57.026 475.182 57.065 475.035 57.065C474.731 57.065 474.458 56.9827 474.216 56.818C473.973 56.6533 473.791 56.4367 473.67 56.168C473.583 55.986 473.527 55.7693 473.501 55.518C473.475 55.2667 473.462 54.972 473.462 54.634L473.475 53.503C473.475 52.8877 473.275 52.58 472.877 52.58C472.591 52.58 472.313 52.814 472.045 53.282C471.776 53.75 471.559 54.3003 471.395 54.933C471.23 55.5657 471.148 56.0857 471.148 56.493C471.148 56.6837 471.087 56.8267 470.966 56.922C470.853 57.0087 470.736 57.052 470.615 57.052C470.424 57.052 470.251 56.9957 470.095 56.883C469.939 56.7617 469.861 56.6273 469.861 56.48C469.921 55.83 469.952 54.7423 469.952 53.217C469.952 52.9397 469.93 51.9127 469.887 50.136L469.848 48.94C469.848 48.7493 469.934 48.5847 470.108 48.446C470.281 48.2987 470.476 48.225 470.693 48.225C470.883 48.225 471.022 48.2683 471.109 48.355C471.195 48.4417 471.239 48.576 471.239 48.758ZM483.313 50.227C483.192 50.227 483.075 50.1967 482.962 50.136C482.85 50.0753 482.772 49.9843 482.728 49.863C482.642 49.629 482.546 49.4643 482.442 49.369C482.347 49.265 482.23 49.213 482.091 49.213C482.005 49.213 481.922 49.278 481.844 49.408C481.775 49.538 481.723 49.7417 481.688 50.019C481.628 50.591 481.597 51.0287 481.597 51.332C481.727 51.358 481.909 51.371 482.143 51.371C482.265 51.371 482.421 51.3623 482.611 51.345L482.962 51.332C483.118 51.332 483.24 51.3623 483.326 51.423C483.413 51.4837 483.456 51.5833 483.456 51.722C483.456 51.9213 483.396 52.086 483.274 52.216C483.153 52.346 483.01 52.411 482.845 52.411C482.221 52.411 481.801 52.4413 481.584 52.502C481.584 53.022 481.61 53.7673 481.662 54.738C481.662 54.8853 481.671 55.0977 481.688 55.375L481.74 56.376C481.758 56.6273 481.732 56.805 481.662 56.909C481.602 57.0043 481.467 57.052 481.259 57.052C480.878 57.052 480.631 56.8223 480.518 56.363C480.449 56.0337 480.393 55.5657 480.349 54.959C480.315 54.3437 480.297 53.802 480.297 53.334C480.297 53.0913 480.31 52.8097 480.336 52.489C480.319 52.4803 480.271 52.476 480.193 52.476C480.115 52.476 480.059 52.4803 480.024 52.489C479.764 52.5063 479.574 52.515 479.452 52.515C479.374 52.515 479.296 52.4587 479.218 52.346C479.14 52.2333 479.101 52.1033 479.101 51.956C479.101 51.8693 479.132 51.7913 479.192 51.722C479.253 51.644 479.327 51.5877 479.413 51.553C479.543 51.4837 479.73 51.449 479.972 51.449H480.362C480.362 50.2357 480.497 49.3907 480.765 48.914C481.025 48.4633 481.454 48.238 482.052 48.238C482.33 48.238 482.594 48.2943 482.845 48.407C483.105 48.5197 483.313 48.6757 483.469 48.875C483.634 49.0743 483.716 49.2997 483.716 49.551C483.716 49.8197 483.682 50.0017 483.612 50.097C483.543 50.1837 483.443 50.227 483.313 50.227ZM489.552 52.827C489.622 52.9483 489.678 53.126 489.721 53.36C489.765 53.5853 489.786 53.789 489.786 53.971C489.786 54.2137 489.747 54.517 489.669 54.881C489.591 55.2363 489.526 55.4747 489.474 55.596C489.006 56.5667 488.105 57.052 486.77 57.052C486.346 57.052 485.93 56.9133 485.522 56.636C485.115 56.35 484.825 56.0163 484.651 55.635L484.56 55.375C484.552 55.3403 484.504 55.2103 484.417 54.985C484.339 54.751 484.3 54.5733 484.3 54.452C484.3 54.0967 484.387 53.685 484.56 53.217C484.734 52.749 484.933 52.3763 485.158 52.099C485.306 51.8997 485.587 51.7307 486.003 51.592C486.419 51.4447 486.788 51.371 487.108 51.371C487.706 51.371 488.187 51.4837 488.551 51.709C488.924 51.9343 489.258 52.307 489.552 52.827ZM488.356 54.92C488.391 54.8593 488.421 54.751 488.447 54.595C488.473 54.439 488.486 54.257 488.486 54.049C488.486 53.7977 488.439 53.5507 488.343 53.308C488.257 53.0653 488.127 52.8573 487.953 52.684C487.945 52.6667 487.914 52.6407 487.862 52.606C487.81 52.5627 487.728 52.5237 487.615 52.489C487.503 52.4457 487.36 52.424 487.186 52.424C486.848 52.424 486.562 52.5237 486.328 52.723C486.094 52.9223 485.917 53.1693 485.795 53.464C485.683 53.7587 485.626 54.049 485.626 54.335C485.626 54.413 485.652 54.5733 485.704 54.816C485.756 55.0587 485.795 55.2147 485.821 55.284C485.891 55.4053 486.025 55.5483 486.224 55.713C486.424 55.869 486.649 55.947 486.9 55.947C487.29 55.947 487.594 55.856 487.81 55.674C488.036 55.492 488.218 55.2407 488.356 54.92ZM491.084 52.437C490.858 52.281 490.746 52.1163 490.746 51.943C490.746 51.8217 490.798 51.709 490.902 51.605C491.006 51.501 491.162 51.449 491.37 51.449C491.612 51.449 491.829 51.514 492.02 51.644C492.219 51.7653 492.358 51.943 492.436 52.177C492.635 51.943 492.86 51.7567 493.112 51.618C493.372 51.4793 493.636 51.41 493.905 51.41C494.225 51.41 494.516 51.4967 494.776 51.67C495.036 51.8433 495.166 52.0773 495.166 52.372C495.166 52.5367 495.092 52.7057 494.945 52.879C494.806 53.0523 494.663 53.139 494.516 53.139C494.438 53.139 494.368 53.1217 494.308 53.087C494.256 53.0437 494.191 52.983 494.113 52.905C494.026 52.8183 493.952 52.7577 493.892 52.723C493.831 52.6797 493.762 52.658 493.684 52.658C493.545 52.658 493.415 52.6797 493.294 52.723C493.172 52.7663 493.09 52.8183 493.047 52.879C492.908 53.0957 492.804 53.2907 492.735 53.464C492.674 53.6373 492.644 53.8237 492.644 54.023C492.644 54.1703 492.639 54.2873 492.631 54.374L492.618 55.115C492.618 55.2277 492.622 55.3533 492.631 55.492C492.639 55.6307 492.648 55.7347 492.657 55.804C492.683 56.038 492.696 56.2633 492.696 56.48C492.696 56.6273 492.639 56.7573 492.527 56.87C492.414 56.9827 492.275 57.039 492.111 57.039C491.851 57.039 491.66 56.9913 491.539 56.896C491.417 56.792 491.357 56.6057 491.357 56.337L491.344 55.505C491.335 55.3403 491.331 55.1063 491.331 54.803L491.344 53.945C491.361 53.529 491.37 53.191 491.37 52.931C491.37 52.8357 491.348 52.749 491.305 52.671C491.27 52.593 491.196 52.515 491.084 52.437ZM503.519 52.658C503.519 52.84 503.48 52.9787 503.402 53.074C503.333 53.1693 503.216 53.217 503.051 53.217C502.93 53.217 502.826 53.1867 502.739 53.126C502.661 53.0653 502.557 52.9613 502.427 52.814C502.323 52.7013 502.202 52.6103 502.063 52.541C501.933 52.4717 501.816 52.437 501.712 52.437C501.183 52.437 500.802 52.5497 500.568 52.775C500.421 52.931 500.299 53.139 500.204 53.399C500.109 53.6503 500.061 53.9103 500.061 54.179C500.061 54.569 500.117 54.881 500.23 55.115C500.343 55.349 500.542 55.5483 500.828 55.713C500.932 55.7737 501.079 55.8257 501.27 55.869C501.461 55.9037 501.617 55.921 501.738 55.921C501.903 55.921 502.076 55.8777 502.258 55.791C502.44 55.6957 502.596 55.5743 502.726 55.427C502.891 55.2363 503.09 55.141 503.324 55.141C503.419 55.141 503.528 55.1887 503.649 55.284C503.779 55.3793 503.844 55.492 503.844 55.622C503.844 55.882 503.718 56.1247 503.467 56.35C503.224 56.5667 502.925 56.74 502.57 56.87C502.215 56.9913 501.885 57.052 501.582 57.052C501.071 57.052 500.594 56.935 500.152 56.701C499.719 56.467 499.372 56.1463 499.112 55.739C498.852 55.323 498.722 54.855 498.722 54.335C498.722 53.8843 498.804 53.4467 498.969 53.022C499.142 52.5973 499.372 52.2507 499.658 51.982C499.892 51.7653 500.182 51.605 500.529 51.501C500.876 51.397 501.24 51.345 501.621 51.345C501.89 51.345 502.167 51.397 502.453 51.501C502.739 51.605 502.969 51.7437 503.142 51.917C503.393 52.1683 503.519 52.4153 503.519 52.658ZM510.094 52.827C510.163 52.9483 510.22 53.126 510.263 53.36C510.306 53.5853 510.328 53.789 510.328 53.971C510.328 54.309 510.254 54.79 510.107 55.414C509.509 56.506 508.625 57.052 507.455 57.052C507.022 57.052 506.58 56.909 506.129 56.623C505.678 56.337 505.366 56.0077 505.193 55.635C504.959 54.8897 504.842 54.4173 504.842 54.218C504.842 53.8713 504.916 53.503 505.063 53.113C505.219 52.723 505.414 52.385 505.648 52.099C505.795 51.8997 506.06 51.7307 506.441 51.592C506.822 51.4447 507.169 51.371 507.481 51.371C508.088 51.371 508.603 51.488 509.028 51.722C509.453 51.9473 509.808 52.3157 510.094 52.827ZM508.963 54.92C509.006 54.8073 509.028 54.517 509.028 54.049C509.028 53.7977 508.98 53.5507 508.885 53.308C508.798 53.0653 508.668 52.8573 508.495 52.684C508.478 52.6667 508.43 52.6407 508.352 52.606C508.274 52.5627 508.166 52.5237 508.027 52.489C507.897 52.4457 507.745 52.424 507.572 52.424C507.087 52.424 506.731 52.619 506.506 53.009C506.281 53.399 506.168 53.841 506.168 54.335C506.168 54.4217 506.19 54.5863 506.233 54.829C506.285 55.0717 506.328 55.2233 506.363 55.284C506.389 55.3447 506.454 55.4313 506.558 55.544C506.671 55.648 506.805 55.7433 506.961 55.83C507.126 55.908 507.295 55.947 507.468 55.947C507.858 55.947 508.17 55.856 508.404 55.674C508.638 55.4833 508.824 55.232 508.963 54.92ZM512.157 51.358C512.729 51.358 513.015 51.735 513.015 52.489C513.015 52.5843 513.007 52.7967 512.989 53.126C512.972 53.5073 512.963 53.8063 512.963 54.023C512.963 54.6297 513.046 55.1193 513.21 55.492C513.271 55.6133 513.379 55.7087 513.535 55.778C513.7 55.8473 513.839 55.882 513.951 55.882C514.125 55.882 514.268 55.8603 514.38 55.817C514.493 55.7737 514.597 55.7087 514.692 55.622C514.796 55.5353 514.896 55.44 514.991 55.336C515.156 55.154 515.26 54.946 515.303 54.712C515.355 54.4693 515.386 54.1487 515.394 53.75C515.394 53.4987 515.407 53.256 515.433 53.022C515.485 52.6407 515.511 52.2853 515.511 51.956C515.511 51.774 515.559 51.6223 515.654 51.501C515.758 51.371 515.906 51.306 516.096 51.306C516.192 51.306 516.304 51.3407 516.434 51.41C516.573 51.4707 516.664 51.54 516.707 51.618C516.768 51.722 516.798 51.865 516.798 52.047C516.798 52.1597 516.785 52.2637 516.759 52.359C516.716 52.489 516.694 52.6537 516.694 52.853C516.694 52.957 516.703 53.1303 516.72 53.373C516.746 53.555 516.759 53.7413 516.759 53.932C516.759 54.5127 516.803 54.9417 516.889 55.219C516.985 55.5137 517.115 55.7737 517.279 55.999C517.453 56.181 517.57 56.3153 517.63 56.402C517.691 56.48 517.721 56.5493 517.721 56.61C517.721 56.714 517.669 56.8137 517.565 56.909C517.461 57.0043 517.353 57.052 517.24 57.052C516.92 57.052 516.638 56.9437 516.395 56.727C516.161 56.5017 515.988 56.2157 515.875 55.869C515.78 55.9817 515.654 56.1203 515.498 56.285C515.342 56.4497 515.195 56.584 515.056 56.688C514.718 56.9307 514.285 57.052 513.756 57.052C513.54 57.052 513.301 56.987 513.041 56.857C512.79 56.727 512.56 56.558 512.352 56.35C512.144 56.1333 512.001 55.9037 511.923 55.661C511.915 55.6437 511.889 55.5743 511.845 55.453C511.811 55.3317 511.793 55.1497 511.793 54.907L511.78 52.827C511.78 52.7057 511.75 52.515 511.689 52.255C511.637 52.0817 511.611 51.9517 511.611 51.865C511.611 51.7177 511.659 51.5963 511.754 51.501C511.858 51.4057 511.993 51.358 512.157 51.358ZM520.619 56.48C520.619 56.6273 520.563 56.7573 520.45 56.87C520.337 56.9827 520.199 57.039 520.034 57.039C519.774 57.039 519.583 56.9913 519.462 56.896C519.341 56.792 519.28 56.6057 519.28 56.337C519.28 56.0163 519.271 55.596 519.254 55.076C519.237 54.6427 519.228 54.2787 519.228 53.984C519.228 53.8453 519.237 53.6633 519.254 53.438C519.271 53.23 519.28 53.074 519.28 52.97C519.254 52.8053 519.189 52.671 519.085 52.567C518.981 52.4543 518.847 52.398 518.682 52.398C518.604 52.398 518.539 52.3633 518.487 52.294C518.435 52.216 518.409 52.138 518.409 52.06C518.409 51.8607 518.487 51.709 518.643 51.605C518.808 51.501 519.003 51.449 519.228 51.449C519.696 51.449 520.021 51.7263 520.203 52.281C520.428 52.021 520.684 51.813 520.97 51.657C521.265 51.4923 521.546 51.41 521.815 51.41C522.136 51.41 522.426 51.4967 522.686 51.67C522.955 51.8433 523.089 52.0773 523.089 52.372C523.089 52.5367 523.015 52.7057 522.868 52.879C522.729 53.0523 522.586 53.139 522.439 53.139C522.361 53.139 522.292 53.1217 522.231 53.087C522.179 53.0437 522.114 52.983 522.036 52.905C521.949 52.8183 521.876 52.7577 521.815 52.723C521.754 52.6797 521.685 52.658 521.607 52.658C521.468 52.658 521.338 52.6797 521.217 52.723C521.096 52.7663 521.013 52.8183 520.97 52.879C520.831 53.0957 520.727 53.2907 520.658 53.464C520.597 53.6373 520.567 53.8237 520.567 54.023C520.567 54.1703 520.563 54.2873 520.554 54.374L520.541 55.115C520.541 55.2277 520.545 55.3533 520.554 55.492C520.563 55.6307 520.571 55.7347 520.58 55.804C520.606 56.038 520.619 56.2633 520.619 56.48ZM527.502 54.192C527.571 54.2353 527.706 54.3177 527.905 54.439C528.113 54.5517 528.252 54.686 528.321 54.842C528.39 54.998 528.425 55.2147 528.425 55.492C528.425 55.804 528.334 56.0813 528.152 56.324C527.97 56.558 527.736 56.74 527.45 56.87C527.251 56.9567 527.034 57.0087 526.8 57.026C526.575 57.0433 526.302 57.052 525.981 57.052C525.808 57.052 525.582 57.026 525.305 56.974C525.036 56.922 524.85 56.8743 524.746 56.831C524.469 56.675 524.235 56.493 524.044 56.285C523.853 56.077 523.758 55.8647 523.758 55.648C523.758 55.4747 523.814 55.336 523.927 55.232C524.04 55.128 524.187 55.076 524.369 55.076C524.464 55.076 524.555 55.102 524.642 55.154C524.737 55.1973 524.802 55.2493 524.837 55.31C524.932 55.5353 525.093 55.7043 525.318 55.817C525.543 55.9297 525.773 55.986 526.007 55.986C526.83 55.986 527.242 55.8387 527.242 55.544C527.242 55.466 527.22 55.4053 527.177 55.362C527.142 55.31 527.09 55.258 527.021 55.206C526.908 55.128 526.748 55.0457 526.54 54.959C526.341 54.8723 526.163 54.8073 526.007 54.764C525.652 54.686 525.305 54.569 524.967 54.413C524.655 54.257 524.399 54.0533 524.2 53.802C524.001 53.542 523.901 53.2257 523.901 52.853C523.901 52.6277 523.983 52.4067 524.148 52.19C524.321 51.9647 524.521 51.7957 524.746 51.683C524.902 51.6223 525.158 51.5573 525.513 51.488C525.868 51.4187 526.111 51.384 526.241 51.384C526.44 51.384 526.657 51.4057 526.891 51.449C527.125 51.4837 527.303 51.5443 527.424 51.631C527.658 51.7697 527.849 51.917 527.996 52.073C528.143 52.2203 528.217 52.3893 528.217 52.58C528.217 52.6753 528.195 52.7793 528.152 52.892C528.109 52.996 528.057 53.061 527.996 53.087C527.866 53.1477 527.714 53.178 527.541 53.178C527.463 53.178 527.398 53.1563 527.346 53.113C527.303 53.0697 527.242 53.0003 527.164 52.905C527.069 52.7577 526.978 52.671 526.891 52.645C526.787 52.619 526.635 52.5887 526.436 52.554C526.237 52.5107 526.102 52.489 526.033 52.489C525.816 52.489 525.608 52.5323 525.409 52.619C525.218 52.7057 525.123 52.8227 525.123 52.97C525.123 53.1433 525.266 53.2907 525.552 53.412C525.734 53.4987 525.933 53.5723 526.15 53.633C526.375 53.6937 526.514 53.7327 526.566 53.75C526.687 53.776 526.843 53.8367 527.034 53.932C527.233 54.0273 527.389 54.114 527.502 54.192ZM529.547 54.062C529.547 53.75 529.603 53.4597 529.716 53.191C529.829 52.9137 529.993 52.6277 530.21 52.333C530.427 52.0383 530.726 51.8087 531.107 51.644C531.488 51.4707 531.904 51.384 532.355 51.384C532.702 51.384 533.035 51.4577 533.356 51.605C533.685 51.7437 533.98 51.917 534.24 52.125C534.275 52.1857 534.335 52.2983 534.422 52.463C534.509 52.619 534.569 52.762 534.604 52.892C534.647 53.022 534.669 53.1563 534.669 53.295C534.669 53.8757 534.457 54.2657 534.032 54.465C533.607 54.6557 533.07 54.751 532.42 54.751C531.77 54.751 531.241 54.7077 530.834 54.621C530.851 54.7857 530.895 54.9503 530.964 55.115C531.033 55.2797 531.116 55.4053 531.211 55.492C531.384 55.6567 531.553 55.765 531.718 55.817C531.891 55.8603 532.121 55.882 532.407 55.882C532.84 55.882 533.178 55.7997 533.421 55.635C533.646 55.4877 533.82 55.414 533.941 55.414C534.106 55.414 534.231 55.466 534.318 55.57C534.405 55.6653 534.448 55.791 534.448 55.947C534.448 56.2763 534.236 56.545 533.811 56.753C533.395 56.961 532.923 57.065 532.394 57.065C531.978 57.065 531.566 56.9913 531.159 56.844C530.752 56.6967 530.427 56.4887 530.184 56.22C530.019 55.9427 529.872 55.6047 529.742 55.206C529.612 54.8073 529.547 54.426 529.547 54.062ZM532.407 52.45C532.216 52.45 532.017 52.4847 531.809 52.554C531.61 52.6147 531.454 52.71 531.341 52.84C531.202 52.9873 531.098 53.1217 531.029 53.243C530.968 53.3643 530.929 53.516 530.912 53.698C531.007 53.698 531.098 53.7023 531.185 53.711C531.272 53.7197 531.354 53.7283 531.432 53.737C531.813 53.7717 532.099 53.789 532.29 53.789C532.671 53.789 532.962 53.7327 533.161 53.62C533.369 53.5073 533.473 53.3557 533.473 53.165C533.473 52.983 533.356 52.8183 533.122 52.671C532.897 52.5237 532.658 52.45 532.407 52.45Z" fill="black"/>
<path d="M426.38 57.3454L423.623 54.5889C424.287 53.7054 424.645 52.63 424.644 51.525C424.644 48.7025 422.347 46.4062 419.525 46.4062C416.703 46.4062 414.406 48.7025 414.406 51.525C414.406 54.3475 416.703 56.6437 419.525 56.6437C420.63 56.645 421.705 56.2867 422.589 55.623L425.345 58.3796C425.485 58.5043 425.667 58.5709 425.854 58.5657C426.041 58.5604 426.219 58.4838 426.351 58.3514C426.484 58.2191 426.56 58.0411 426.566 57.854C426.571 57.6669 426.504 57.4849 426.38 57.3454ZM415.869 51.525C415.869 50.8019 416.083 50.095 416.485 49.4937C416.887 48.8924 417.458 48.4238 418.126 48.1471C418.794 47.8703 419.529 47.7979 420.238 47.939C420.948 48.0801 421.599 48.4283 422.11 48.9396C422.622 49.451 422.97 50.1025 423.111 50.8117C423.252 51.5209 423.18 52.2561 422.903 52.9242C422.626 53.5923 422.158 54.1633 421.556 54.5651C420.955 54.9668 420.248 55.1812 419.525 55.1812C418.556 55.1801 417.626 54.7945 416.941 54.1091C416.255 53.4236 415.87 52.4943 415.869 51.525Z" fill="black"/>
<path d="M1085.49 58.1465C1083.54 58.1465 1082.1 57.6387 1081.17 56.623C1080.24 55.6074 1079.78 54.0286 1079.78 51.8867C1079.78 47.7656 1081.71 45.7051 1085.58 45.7051C1086.11 45.7051 1086.66 45.7572 1087.22 45.8613C1087.79 45.9655 1088.26 46.112 1088.64 46.3008C1089.02 46.4831 1089.21 46.6882 1089.21 46.916C1089.21 47.0788 1089.15 47.2936 1089.02 47.5605C1088.89 47.821 1088.73 48.0521 1088.55 48.2539C1088.38 48.4557 1088.22 48.5566 1088.08 48.5566C1088.05 48.5566 1087.96 48.5241 1087.82 48.459C1087.51 48.3288 1087.18 48.2214 1086.83 48.1367C1086.49 48.0456 1086.06 48 1085.53 48C1084.51 48 1083.75 48.3255 1083.26 48.9766C1082.77 49.6211 1082.53 50.5977 1082.53 51.9062C1082.53 53.2148 1082.77 54.2012 1083.27 54.8652C1083.76 55.5293 1084.5 55.8613 1085.49 55.8613C1086.01 55.8613 1086.45 55.8092 1086.83 55.7051C1087.22 55.6009 1087.59 55.4674 1087.96 55.3047C1087.97 55.2982 1088.03 55.2754 1088.13 55.2363C1088.23 55.1908 1088.3 55.168 1088.35 55.168C1088.51 55.168 1088.68 55.2689 1088.83 55.4707C1088.99 55.666 1089.12 55.8906 1089.21 56.1445C1089.31 56.3919 1089.36 56.571 1089.36 56.6816C1089.36 57.0007 1089.15 57.2708 1088.72 57.4922C1088.29 57.7135 1087.78 57.8796 1087.17 57.9902C1086.57 58.0944 1086.01 58.1465 1085.49 58.1465ZM1094.71 58.1465C1093.34 58.1465 1092.29 57.7428 1091.57 56.9355C1090.85 56.1283 1090.49 54.9661 1090.49 53.4492C1090.49 51.9388 1090.85 50.7832 1091.57 49.9824C1092.29 49.1816 1093.34 48.7812 1094.71 48.7812C1096.09 48.7812 1097.13 49.1816 1097.84 49.9824C1098.55 50.7767 1098.91 51.9323 1098.91 53.4492C1098.91 54.9661 1098.55 56.1283 1097.84 56.9355C1097.13 57.7428 1096.09 58.1465 1094.71 58.1465ZM1094.71 56.1055C1095.26 56.1055 1095.66 55.8841 1095.91 55.4414C1096.17 54.9987 1096.3 54.3346 1096.3 53.4492C1096.3 52.5703 1096.17 51.9095 1095.91 51.4668C1095.66 51.0241 1095.26 50.8027 1094.71 50.8027C1093.63 50.8027 1093.09 51.6849 1093.09 53.4492C1093.09 54.3281 1093.22 54.9922 1093.48 55.4414C1093.75 55.8841 1094.16 56.1055 1094.71 56.1055ZM1103.23 58.1465C1102.36 58.1465 1101.71 57.9186 1101.29 57.4629C1100.88 57.0007 1100.67 56.2878 1100.67 55.3242V49.4355C1100.67 49.2533 1100.75 49.1165 1100.92 49.0254C1101.09 48.9342 1101.36 48.8887 1101.71 48.8887H1102.19C1102.55 48.8887 1102.82 48.9342 1102.98 49.0254C1103.15 49.1165 1103.24 49.2533 1103.24 49.4355V54.9336C1103.24 55.2917 1103.32 55.5618 1103.48 55.7441C1103.65 55.9264 1103.91 56.0176 1104.28 56.0176C1104.6 56.0176 1104.88 55.9167 1105.11 55.7148C1105.35 55.5065 1105.54 55.2721 1105.67 55.0117V49.4355C1105.67 49.2533 1105.75 49.1165 1105.92 49.0254C1106.09 48.9342 1106.36 48.8887 1106.71 48.8887H1107.19C1107.55 48.8887 1107.82 48.9342 1107.98 49.0254C1108.15 49.1165 1108.24 49.2533 1108.24 49.4355V54.9336C1108.24 55.4805 1108.25 55.9102 1108.28 56.2227C1108.31 56.5286 1108.35 56.8151 1108.39 57.082C1108.43 57.2578 1108.44 57.3815 1108.44 57.4531C1108.44 57.5833 1108.32 57.6908 1108.08 57.7754C1107.84 57.86 1107.56 57.9219 1107.25 57.9609C1106.95 58 1106.7 58.0195 1106.51 58.0195C1106.3 58.0195 1106.15 57.9382 1106.06 57.7754C1105.98 57.6061 1105.91 57.3685 1105.86 57.0625L1105.81 56.8184C1105.53 57.1895 1105.17 57.5052 1104.7 57.7656C1104.25 58.0195 1103.76 58.1465 1103.23 58.1465ZM1111.43 58.0293C1110.74 58.0293 1110.4 57.847 1110.4 57.4824V51.9746C1110.4 51.1413 1110.34 50.4479 1110.23 49.8945C1110.2 49.7188 1110.18 49.5951 1110.18 49.5234C1110.18 49.3932 1110.3 49.2891 1110.54 49.2109C1110.79 49.1263 1111.07 49.0645 1111.37 49.0254C1111.69 48.9863 1111.94 48.9668 1112.12 48.9668C1112.33 48.9668 1112.47 49.0417 1112.54 49.1914C1112.63 49.3411 1112.7 49.5592 1112.77 49.8457L1112.83 50.0996C1113.05 49.696 1113.3 49.377 1113.59 49.1426C1113.88 48.9017 1114.26 48.7812 1114.71 48.7812C1115.09 48.7812 1115.35 48.8789 1115.49 49.0742C1115.64 49.263 1115.71 49.4779 1115.71 49.7188C1115.71 49.849 1115.69 50.0345 1115.64 50.2754C1115.6 50.5098 1115.53 50.7181 1115.45 50.9004C1115.36 51.0827 1115.27 51.1738 1115.16 51.1738C1115.09 51.1738 1114.98 51.1543 1114.84 51.1152C1114.64 51.0632 1114.48 51.0371 1114.34 51.0371C1114.02 51.0371 1113.74 51.1283 1113.5 51.3105C1113.27 51.4863 1113.09 51.6849 1112.96 51.9062V57.4824C1112.96 57.847 1112.61 58.0293 1111.91 58.0293H1111.43ZM1119.08 58.1465C1118.63 58.1465 1118.18 58.0977 1117.74 58C1117.3 57.9023 1116.93 57.7624 1116.64 57.5801C1116.35 57.3978 1116.21 57.1895 1116.21 56.9551C1116.21 56.8118 1116.26 56.6328 1116.36 56.418C1116.47 56.2031 1116.59 56.0176 1116.73 55.8613C1116.88 55.6986 1117.01 55.6172 1117.12 55.6172C1117.18 55.6172 1117.31 55.6628 1117.51 55.7539C1117.73 55.8581 1117.95 55.9427 1118.16 56.0078C1118.37 56.0729 1118.61 56.1055 1118.87 56.1055C1119.21 56.1055 1119.46 56.0436 1119.62 55.9199C1119.79 55.7962 1119.88 55.6139 1119.88 55.373C1119.88 55.1908 1119.83 55.041 1119.72 54.9238C1119.62 54.8001 1119.5 54.6992 1119.34 54.6211C1119.19 54.543 1118.96 54.4486 1118.68 54.3379L1118.39 54.2305C1118.02 54.0872 1117.7 53.9245 1117.42 53.7422C1117.14 53.5599 1116.9 53.2962 1116.71 52.9512C1116.51 52.5996 1116.41 52.1569 1116.41 51.623C1116.41 51.0306 1116.54 50.5228 1116.79 50.0996C1117.05 49.6699 1117.42 49.3444 1117.9 49.123C1118.37 48.8952 1118.93 48.7812 1119.58 48.7812C1119.95 48.7812 1120.33 48.8171 1120.74 48.8887C1121.14 48.9603 1121.48 49.071 1121.75 49.2207C1122.03 49.3704 1122.17 49.5592 1122.17 49.7871C1122.17 49.9173 1122.13 50.0931 1122.05 50.3145C1121.97 50.5358 1121.87 50.7311 1121.75 50.9004C1121.64 51.0697 1121.53 51.1543 1121.42 51.1543C1121.39 51.1543 1121.3 51.125 1121.15 51.0664C1120.95 50.9818 1120.75 50.9167 1120.56 50.8711C1120.38 50.819 1120.17 50.793 1119.93 50.793C1119.32 50.793 1119.01 50.9948 1119.01 51.3984C1119.01 51.5807 1119.07 51.737 1119.18 51.8672C1119.29 51.9974 1119.44 52.1048 1119.61 52.1895C1119.77 52.2741 1120.01 52.375 1120.32 52.4922C1120.67 52.6354 1120.89 52.7266 1120.97 52.7656C1121.43 52.9935 1121.79 53.2962 1122.07 53.6738C1122.35 54.0449 1122.49 54.543 1122.49 55.168C1122.49 55.7604 1122.35 56.2812 1122.09 56.7305C1121.82 57.1797 1121.43 57.528 1120.91 57.7754C1120.4 58.0228 1119.79 58.1465 1119.08 58.1465ZM1128.09 58.1465C1126.57 58.1465 1125.43 57.7396 1124.68 56.9258C1123.93 56.1055 1123.56 54.9694 1123.56 53.5176C1123.56 51.8835 1123.93 50.6855 1124.68 49.9238C1125.43 49.1621 1126.46 48.7812 1127.78 48.7812C1128.65 48.7812 1129.36 48.9798 1129.92 49.377C1130.48 49.7741 1130.88 50.3079 1131.14 50.9785C1131.4 51.6491 1131.53 52.4076 1131.53 53.2539C1131.53 53.3516 1131.47 53.4818 1131.35 53.6445C1131.24 53.8073 1131.12 53.9538 1130.97 54.084C1130.83 54.2142 1130.72 54.2793 1130.64 54.2793H1126.22C1126.28 54.9434 1126.47 55.4154 1126.8 55.6953C1127.14 55.9688 1127.61 56.1055 1128.21 56.1055C1128.53 56.1055 1128.83 56.0697 1129.09 55.998C1129.35 55.9199 1129.64 55.819 1129.94 55.6953C1130.12 55.6107 1130.24 55.5684 1130.31 55.5684C1130.43 55.5684 1130.55 55.653 1130.69 55.8223C1130.83 55.985 1130.95 56.1738 1131.05 56.3887C1131.15 56.6035 1131.21 56.7695 1131.21 56.8867C1131.21 57.1536 1131.02 57.3815 1130.66 57.5703C1130.3 57.7591 1129.88 57.9023 1129.38 58C1128.89 58.0977 1128.46 58.1465 1128.09 58.1465ZM1129.03 52.5703C1129.03 52.0365 1128.93 51.61 1128.72 51.291C1128.51 50.9655 1128.2 50.8027 1127.78 50.8027C1126.92 50.8027 1126.4 51.3919 1126.22 52.5703H1129.03ZM1135.62 58.1465C1135.17 58.1465 1134.73 58.0977 1134.28 58C1133.84 57.9023 1133.47 57.7624 1133.18 57.5801C1132.89 57.3978 1132.75 57.1895 1132.75 56.9551C1132.75 56.8118 1132.8 56.6328 1132.91 56.418C1133.01 56.2031 1133.13 56.0176 1133.28 55.8613C1133.43 55.6986 1133.56 55.6172 1133.67 55.6172C1133.73 55.6172 1133.85 55.6628 1134.05 55.7539C1134.28 55.8581 1134.49 55.9427 1134.7 56.0078C1134.91 56.0729 1135.15 56.1055 1135.42 56.1055C1135.75 56.1055 1136 56.0436 1136.17 55.9199C1136.34 55.7962 1136.42 55.6139 1136.42 55.373C1136.42 55.1908 1136.37 55.041 1136.27 54.9238C1136.17 54.8001 1136.04 54.6992 1135.88 54.6211C1135.73 54.543 1135.51 54.4486 1135.22 54.3379L1134.94 54.2305C1134.57 54.0872 1134.24 53.9245 1133.96 53.7422C1133.68 53.5599 1133.44 53.2962 1133.25 52.9512C1133.05 52.5996 1132.96 52.1569 1132.96 51.623C1132.96 51.0306 1133.08 50.5228 1133.34 50.0996C1133.6 49.6699 1133.96 49.3444 1134.44 49.123C1134.91 48.8952 1135.47 48.7812 1136.12 48.7812C1136.49 48.7812 1136.88 48.8171 1137.28 48.8887C1137.68 48.9603 1138.02 49.071 1138.3 49.2207C1138.58 49.3704 1138.72 49.5592 1138.72 49.7871C1138.72 49.9173 1138.67 50.0931 1138.59 50.3145C1138.51 50.5358 1138.41 50.7311 1138.3 50.9004C1138.18 51.0697 1138.07 51.1543 1137.96 51.1543C1137.93 51.1543 1137.84 51.125 1137.69 51.0664C1137.49 50.9818 1137.29 50.9167 1137.11 50.8711C1136.92 50.819 1136.71 50.793 1136.47 50.793C1135.86 50.793 1135.55 50.9948 1135.55 51.3984C1135.55 51.5807 1135.61 51.737 1135.72 51.8672C1135.84 51.9974 1135.98 52.1048 1136.15 52.1895C1136.32 52.2741 1136.56 52.375 1136.86 52.4922C1137.21 52.6354 1137.43 52.7266 1137.52 52.7656C1137.97 52.9935 1138.34 53.2962 1138.61 53.6738C1138.89 54.0449 1139.03 54.543 1139.03 55.168C1139.03 55.7604 1138.9 56.2812 1138.63 56.7305C1138.36 57.1797 1137.97 57.528 1137.46 57.7754C1136.94 58.0228 1136.33 58.1465 1135.62 58.1465Z" fill="white"/>
<path d="M1145 50.5938L1148.5 53.3937L1152 50.5938" stroke="white" stroke-width="2" stroke-linecap="round" stroke-linejoin="round"/>
<path d="M1194.5 58.0293C1193.81 58.0293 1193.46 57.847 1193.46 57.4824V46.3691C1193.46 46.1803 1193.55 46.0404 1193.71 45.9492C1193.88 45.8516 1194.14 45.8027 1194.5 45.8027H1195.12C1195.47 45.8027 1195.73 45.8516 1195.9 45.9492C1196.07 46.0404 1196.15 46.1803 1196.15 46.3691V50.6562H1200.84V46.3691C1200.84 46.1803 1200.92 46.0404 1201.09 45.9492C1201.26 45.8516 1201.52 45.8027 1201.88 45.8027H1202.49C1203.18 45.8027 1203.53 45.9915 1203.53 46.3691V57.4824C1203.53 57.847 1203.18 58.0293 1202.49 58.0293H1201.88C1201.19 58.0293 1200.84 57.847 1200.84 57.4824V52.9512H1196.15V57.4824C1196.15 57.847 1195.81 58.0293 1195.12 58.0293H1194.5ZM1210 58.1465C1208.47 58.1465 1207.34 57.7396 1206.59 56.9258C1205.84 56.1055 1205.47 54.9694 1205.47 53.5176C1205.47 51.8835 1205.84 50.6855 1206.59 49.9238C1207.34 49.1621 1208.37 48.7812 1209.69 48.7812C1210.56 48.7812 1211.27 48.9798 1211.82 49.377C1212.38 49.7741 1212.79 50.3079 1213.04 50.9785C1213.31 51.6491 1213.44 52.4076 1213.44 53.2539C1213.44 53.3516 1213.38 53.4818 1213.26 53.6445C1213.15 53.8073 1213.02 53.9538 1212.88 54.084C1212.74 54.2142 1212.62 54.2793 1212.55 54.2793H1208.12C1208.18 54.9434 1208.38 55.4154 1208.71 55.6953C1209.05 55.9688 1209.52 56.1055 1210.12 56.1055C1210.44 56.1055 1210.73 56.0697 1210.99 55.998C1211.26 55.9199 1211.54 55.819 1211.84 55.6953C1212.03 55.6107 1212.15 55.5684 1212.21 55.5684C1212.33 55.5684 1212.46 55.653 1212.6 55.8223C1212.74 55.985 1212.86 56.1738 1212.96 56.3887C1213.06 56.6035 1213.11 56.7695 1213.11 56.8867C1213.11 57.1536 1212.93 57.3815 1212.57 57.5703C1212.21 57.7591 1211.78 57.9023 1211.29 58C1210.8 58.0977 1210.37 58.1465 1210 58.1465ZM1210.94 52.5703C1210.94 52.0365 1210.83 51.61 1210.62 51.291C1210.41 50.9655 1210.1 50.8027 1209.69 50.8027C1208.83 50.8027 1208.31 51.3919 1208.12 52.5703H1210.94ZM1217.74 58.1465C1216.92 58.1465 1216.28 57.9154 1215.85 57.4531C1215.42 56.9844 1215.2 56.2747 1215.2 55.3242V45.4707C1215.2 45.0931 1215.55 44.9043 1216.25 44.9043H1216.74C1217.09 44.9043 1217.35 44.9531 1217.52 45.0508C1217.69 45.1419 1217.77 45.2819 1217.77 45.4707V55.3535C1217.77 55.6204 1217.82 55.8125 1217.92 55.9297C1218.02 56.0469 1218.18 56.1055 1218.41 56.1055C1218.46 56.1055 1218.55 56.0924 1218.67 56.0664C1218.7 56.0599 1218.74 56.0534 1218.77 56.0469C1218.8 56.0404 1218.84 56.0371 1218.88 56.0371C1218.97 56.0371 1219.06 56.125 1219.14 56.3008C1219.22 56.4701 1219.29 56.6621 1219.33 56.877C1219.38 57.0853 1219.4 57.222 1219.4 57.2871C1219.4 57.86 1218.85 58.1465 1217.74 58.1465ZM1221.55 61.584C1221.19 61.584 1220.93 61.5352 1220.76 61.4375C1220.59 61.3464 1220.51 61.2064 1220.51 61.0176V51.9746C1220.51 51.4538 1220.49 51.0469 1220.46 50.7539C1220.43 50.4544 1220.4 50.168 1220.35 49.8945C1220.32 49.7188 1220.3 49.5951 1220.3 49.5234C1220.3 49.3932 1220.42 49.2891 1220.66 49.2109C1220.9 49.1263 1221.18 49.0645 1221.48 49.0254C1221.79 48.9863 1222.05 48.9668 1222.23 48.9668C1222.44 48.9668 1222.59 49.0449 1222.66 49.2012C1222.75 49.3509 1222.82 49.569 1222.89 49.8555L1222.94 50.0801C1223.14 49.696 1223.45 49.3835 1223.86 49.1426C1224.27 48.9017 1224.74 48.7812 1225.26 48.7812C1225.89 48.7812 1226.45 48.9635 1226.94 49.3281C1227.43 49.6927 1227.81 50.2298 1228.08 50.9395C1228.36 51.6426 1228.5 52.4857 1228.5 53.4688C1228.5 54.4128 1228.36 55.2363 1228.07 55.9395C1227.79 56.6426 1227.37 57.1862 1226.82 57.5703C1226.28 57.9544 1225.62 58.1465 1224.85 58.1465C1224.19 58.1465 1223.6 57.9642 1223.06 57.5996V61.0176C1223.06 61.2064 1222.98 61.3464 1222.81 61.4375C1222.65 61.5352 1222.39 61.584 1222.03 61.584H1221.55ZM1224.29 56.1055C1225.36 56.1055 1225.9 55.2266 1225.9 53.4688C1225.9 51.7435 1225.43 50.8809 1224.5 50.8809C1223.95 50.8809 1223.47 51.2227 1223.06 51.9062V55.7734C1223.47 55.9948 1223.88 56.1055 1224.29 56.1055Z" fill="white"/>
<circle cx="1285" cy="52" r="15" fill="white"/>
<path d="M1281.51 60C1282.19 60 1282.74 59.4404 1282.74 58.75C1282.74 58.0596 1282.19 57.5 1281.51 57.5C1280.84 57.5 1280.29 58.0596 1280.29 58.75C1280.29 59.4404 1280.84 60 1281.51 60Z" fill="black"/>
<path d="M1290.09 60C1290.77 60 1291.32 59.4404 1291.32 58.75C1291.32 58.0596 1290.77 57.5 1290.09 57.5C1289.42 57.5 1288.87 58.0596 1288.87 58.75C1288.87 59.4404 1289.42 60 1290.09 60Z" fill="black"/>
<path d="M1281.2 54.375H1291.21L1292.68 46.875H1279.9L1279.58 45H1276V46.25H1278.55L1280.39 56.875H1291.32V55.625H1281.42L1281.2 54.375Z" fill="black"/>
<circle cx="1325" cy="52" r="15" fill="white"/>
<path d="M1327.51 45.2704C1326.84 44.5318 1325.9 44.125 1324.86 44.125C1323.82 44.125 1322.87 44.5293 1322.2 45.2634C1321.52 46.0055 1321.19 47.0141 1321.27 48.1033C1321.43 50.252 1323.04 52 1324.86 52C1326.69 52 1328.29 50.2524 1328.45 48.104C1328.53 47.0247 1328.2 46.0182 1327.51 45.2704ZM1330.95 59.875H1318.77C1318.61 59.8771 1318.45 59.8431 1318.31 59.7754C1318.16 59.7077 1318.03 59.6081 1317.93 59.4837C1317.71 59.2105 1317.62 58.8375 1317.68 58.4603C1317.97 56.8143 1318.89 55.4316 1320.32 54.4609C1321.59 53.5993 1323.21 53.125 1324.86 53.125C1326.52 53.125 1328.13 53.5996 1329.4 54.4609C1330.83 55.4312 1331.75 56.8139 1332.04 58.46C1332.11 58.8372 1332.01 59.2102 1331.79 59.4834C1331.69 59.6078 1331.56 59.7075 1331.41 59.7752C1331.27 59.843 1331.11 59.8771 1330.95 59.875Z" fill="black"/>
</g>
<defs>
<clipPath id="clip0_37_4921">
<rect width="1440" height="100" fill="white"/>
</clipPath>
</defs>
</svg>
